<svg width="21" height="22" viewBox="0 0 21 22" fill="none" xmlns="http://www.w3.org/2000/svg">
<path fill-rule="evenodd" clip-rule="evenodd" d="M12.9371 7.21441C13.1117 7.21714 13.2806 7.29134 13.4008 7.41779C13.5291 7.55275 13.5996 7.72907 13.5995 7.9144C13.5995 8.09991 13.5291 8.27623 13.4008 8.41102C13.2727 8.54581 13.1051 8.62001 12.9287 8.62001C12.7526 8.62001 12.5848 8.54581 12.4567 8.41102C12.3285 8.27623 12.258 8.09991 12.258 7.9144C12.258 7.7289 12.3284 7.55258 12.4567 7.41779C12.5843 7.28385 12.756 7.21203 12.9371 7.21441ZM12.7469 8.1057C12.8482 8.21241 13.0096 8.21241 13.1106 8.10587C13.1614 8.0526 13.1894 7.98453 13.1892 7.91424C13.1892 7.84412 13.1614 7.77621 13.1107 7.72295C13.0653 7.67512 12.9997 7.64704 12.9312 7.64602H12.9269C12.858 7.64602 12.7943 7.67325 12.7469 7.72312C12.6964 7.77638 12.6684 7.84429 12.6684 7.91441C12.6684 7.98453 12.6963 8.05243 12.7469 8.1057Z" fill="white"/>
<path fill-rule="evenodd" clip-rule="evenodd" d="M9.74844 9.51924C9.42391 8.50967 9.67612 7.38199 10.4098 6.61018C11.4539 5.51178 13.1528 5.51178 14.1969 6.61018C14.7032 7.14271 14.9821 7.85019 14.9821 8.60226C14.9821 9.35433 14.7032 10.0618 14.1969 10.5943C13.4467 11.3835 12.2999 11.6893 11.361 11.3644L7.74286 15.1707C7.70549 15.2101 7.65501 15.2329 7.60195 15.2339L6.1804 15.2637H6.17635C6.122 15.2637 6.06974 15.241 6.03124 15.2005C5.99176 15.159 5.97009 15.1023 5.97122 15.0436L5.99953 13.5481C6.00179 13.4305 6.09288 13.3366 6.20467 13.3366H6.72187L6.75358 12.7476C6.75941 12.6366 6.84483 12.5485 6.95047 12.5442L7.50327 12.5219L7.5353 11.9252C7.54112 11.8171 7.62217 11.7302 7.7249 11.7222L8.31621 11.6761L8.35989 11.054C8.36344 11.0024 8.38464 10.9539 8.41942 10.9174L9.74844 9.51924ZM11.3839 10.9143C12.1965 11.2535 13.2343 10.9965 13.9068 10.2892C14.3355 9.83817 14.5719 9.2391 14.572 8.60242C14.572 7.96574 14.3357 7.36667 13.907 6.9155C13.0227 5.98541 11.5841 5.98558 10.6999 6.9155C10.0493 7.6 9.84405 8.61246 10.1768 9.4949C10.2071 9.57489 10.1891 9.66611 10.1312 9.72704L8.76353 11.1658L8.7124 11.8934C8.7048 11.9999 8.6244 12.0847 8.52296 12.0927L7.93473 12.1385L7.90221 12.742C7.89639 12.8531 7.81097 12.9412 7.70533 12.9455L7.15253 12.9678L7.12034 13.5646C7.11419 13.6788 7.02424 13.7682 6.91552 13.7682H6.40576L6.3857 14.8276L7.51119 14.804L11.163 10.9623C11.221 10.9013 11.3078 10.8825 11.3839 10.9143Z" fill="white"/>
<path d="M10.4098 6.61018L10.2648 6.47239L10.4098 6.61018ZM9.74844 9.51924L9.89339 9.65703L9.97516 9.57102L9.93884 9.45803L9.74844 9.51924ZM14.1969 6.61018L14.0519 6.74798L14.0519 6.748L14.1969 6.61018ZM14.1969 10.5943L14.0519 10.4565L14.0519 10.4565L14.1969 10.5943ZM11.361 11.3644L11.4265 11.1754L11.3048 11.1333L11.2161 11.2266L11.361 11.3644ZM7.74286 15.1707L7.5979 15.0329H7.5979L7.74286 15.1707ZM7.60195 15.2339L7.5981 15.0339L7.59776 15.0339L7.60195 15.2339ZM6.1804 15.2637V15.4637L6.18459 15.4636L6.1804 15.2637ZM6.03124 15.2005L5.88628 15.3383H5.88628L6.03124 15.2005ZM5.97122 15.0436L6.17118 15.0475L6.17118 15.0474L5.97122 15.0436ZM5.99953 13.5481L5.79957 13.5443L5.79957 13.5444L5.99953 13.5481ZM6.72187 13.3366V13.5366H6.9114L6.92158 13.3474L6.72187 13.3366ZM6.75358 12.7476L6.95329 12.7583L6.95331 12.7581L6.75358 12.7476ZM6.95047 12.5442L6.95852 12.744L6.95853 12.744L6.95047 12.5442ZM7.50327 12.5219L7.51133 12.7217L7.69322 12.7144L7.70298 12.5326L7.50327 12.5219ZM7.5353 11.9252L7.33559 11.9145L7.33559 11.9145L7.5353 11.9252ZM7.7249 11.7222L7.74043 11.9216L7.74046 11.9216L7.7249 11.7222ZM8.31621 11.6761L8.33176 11.8755L8.50364 11.862L8.51571 11.6901L8.31621 11.6761ZM8.35989 11.054L8.55939 11.068L8.55941 11.0678L8.35989 11.054ZM8.41942 10.9174L8.27446 10.7796L8.41942 10.9174ZM13.9068 10.2892L14.0517 10.427L14.0518 10.427L13.9068 10.2892ZM11.3839 10.9143L11.3066 11.0988L11.3068 11.0988L11.3839 10.9143ZM14.572 8.60242L14.772 8.60247V8.60242H14.572ZM13.907 6.9155L14.052 6.77773L14.0519 6.77769L13.907 6.9155ZM10.6999 6.9155L10.5549 6.77768L10.5549 6.77772L10.6999 6.9155ZM10.1768 9.4949L9.98969 9.56547L9.98976 9.56565L10.1768 9.4949ZM10.1312 9.72704L9.98625 9.58924V9.58924L10.1312 9.72704ZM8.76353 11.1658L8.61857 11.028L8.56906 11.0801L8.56402 11.1518L8.76353 11.1658ZM8.7124 11.8934L8.9119 11.9076L8.91191 11.9074L8.7124 11.8934ZM8.52296 12.0927L8.53848 12.2921L8.53868 12.2921L8.52296 12.0927ZM7.93473 12.1385L7.91921 11.9391L7.74445 11.9527L7.73502 12.1277L7.93473 12.1385ZM7.90221 12.742L7.7025 12.7312L7.70249 12.7315L7.90221 12.742ZM7.70533 12.9455L7.69728 12.7457L7.69727 12.7457L7.70533 12.9455ZM7.15253 12.9678L7.14447 12.768L6.96262 12.7753L6.95282 12.957L7.15253 12.9678ZM7.12034 13.5646L6.92063 13.5539L6.92063 13.5539L7.12034 13.5646ZM6.40576 13.7682V13.5682H6.20951L6.20579 13.7644L6.40576 13.7682ZM6.3857 14.8276L6.18573 14.8238L6.18179 15.032L6.3899 15.0276L6.3857 14.8276ZM7.51119 14.804L7.5154 15.0039L7.59873 15.0022L7.65615 14.9418L7.51119 14.804ZM11.163 10.9623L11.308 11.1001L11.163 10.9623ZM10.2648 6.47239C9.48034 7.29767 9.2113 8.50181 9.55803 9.58045L9.93884 9.45803C9.63651 8.51754 9.8719 7.46632 10.5547 6.74798L10.2648 6.47239ZM14.3418 6.47239C13.2189 5.29104 11.3878 5.29104 10.2648 6.47239L10.5547 6.74798C11.52 5.73251 13.0866 5.73251 14.0519 6.74798L14.3418 6.47239ZM15.1821 8.60226C15.1821 7.80022 14.8844 7.04302 14.3418 6.47236L14.0519 6.748C14.522 7.24239 14.7821 7.90016 14.7821 8.60226H15.1821ZM14.3418 10.7321C14.8844 10.1615 15.1821 9.40429 15.1821 8.60226H14.7821C14.7821 9.30436 14.522 9.96212 14.0519 10.4565L14.3418 10.7321ZM11.2956 11.5534C12.3159 11.9065 13.5432 11.5722 14.3418 10.7321L14.0519 10.4565C13.3502 11.1948 12.2838 11.4721 11.4265 11.1754L11.2956 11.5534ZM7.88782 15.3085L11.506 11.5022L11.2161 11.2266L7.5979 15.0329L7.88782 15.3085ZM7.6058 15.4338C7.71435 15.4318 7.81504 15.3851 7.88782 15.3085L7.5979 15.0329L7.5981 15.0339L7.6058 15.4338ZM6.18459 15.4636L7.60614 15.4338L7.59776 15.0339L6.17621 15.0637L6.18459 15.4636ZM6.17635 15.4637H6.1804V15.0637H6.17635V15.4637ZM5.88628 15.3383C5.96162 15.4176 6.06587 15.4637 6.17635 15.4637V15.0637L6.1762 15.0627L5.88628 15.3383ZM5.77126 15.0398C5.76914 15.1496 5.80955 15.2576 5.88628 15.3383L6.1762 15.0627C6.17398 15.0604 6.17104 15.055 6.17118 15.0475L5.77126 15.0398ZM5.79957 13.5444L5.77125 15.0398L6.17118 15.0474L6.19949 13.5519L5.79957 13.5444ZM6.20467 13.1366C5.97469 13.1366 5.80375 13.3272 5.79957 13.5443L6.19949 13.552C6.19964 13.5443 6.20251 13.5397 6.20461 13.5375C6.20565 13.5364 6.20625 13.5362 6.20604 13.5363C6.20566 13.5365 6.20503 13.5366 6.20467 13.5366V13.1366ZM6.72187 13.1366H6.20467V13.5366H6.72187V13.1366ZM6.55387 12.7368L6.52216 13.3259L6.92158 13.3474L6.95329 12.7583L6.55387 12.7368ZM6.94242 12.3444C6.72568 12.3531 6.56467 12.5311 6.55386 12.7371L6.95331 12.7581C6.95366 12.7513 6.95624 12.7471 6.95827 12.745C6.96018 12.743 6.96031 12.744 6.95852 12.744L6.94242 12.3444ZM7.49521 12.3221L6.94241 12.3444L6.95853 12.744L7.51133 12.7217L7.49521 12.3221ZM7.33559 11.9145L7.30355 12.5112L7.70298 12.5326L7.73501 11.9359L7.33559 11.9145ZM7.70938 11.5228C7.49876 11.5392 7.34637 11.7143 7.33559 11.9145L7.73501 11.936C7.73538 11.9291 7.73795 11.9248 7.73998 11.9226C7.74187 11.9206 7.74211 11.9214 7.74043 11.9216L7.70938 11.5228ZM8.30065 11.4767L7.70935 11.5228L7.74046 11.9216L8.33176 11.8755L8.30065 11.4767ZM8.16038 11.04L8.1167 11.662L8.51571 11.6901L8.55939 11.068L8.16038 11.04ZM8.27446 10.7796C8.20696 10.8506 8.16706 10.9432 8.16036 11.0402L8.55941 11.0678C8.55983 11.0617 8.56231 11.0573 8.56438 11.0551L8.27446 10.7796ZM9.60348 9.38145L8.27446 10.7796L8.56438 11.0551L9.89339 9.65703L9.60348 9.38145ZM13.7619 10.1514C13.1384 10.8071 12.1867 11.0327 11.4609 10.7297L11.3068 11.0988C12.2062 11.4743 13.3302 11.1859 14.0517 10.427L13.7619 10.1514ZM14.372 8.60237C14.3719 9.18907 14.1544 9.73846 13.7618 10.1514L14.0518 10.427C14.5167 9.93788 14.7719 9.28914 14.772 8.60247L14.372 8.60237ZM13.762 7.05327C14.1545 7.46637 14.372 8.01577 14.372 8.60242H14.772C14.772 7.91572 14.5168 7.26698 14.052 6.77773L13.762 7.05327ZM10.8448 7.05332C11.6503 6.20629 12.9566 6.20616 13.762 7.05331L14.0519 6.77769C13.0888 5.76466 11.518 5.76487 10.5549 6.77768L10.8448 7.05332ZM10.364 9.42433C10.0583 8.6138 10.2471 7.68226 10.8448 7.05328L10.5549 6.77772C9.85161 7.51775 9.6298 8.61113 9.98969 9.56547L10.364 9.42433ZM10.2762 9.86483C10.3881 9.74708 10.4207 9.57446 10.3639 9.42415L9.98976 9.56565C9.99134 9.56983 9.99179 9.57471 9.99084 9.57953C9.98989 9.58435 9.98789 9.58752 9.98625 9.58924L10.2762 9.86483ZM8.90848 11.3036L10.2762 9.86483L9.98625 9.58924L8.61857 11.028L8.90848 11.3036ZM8.91191 11.9074L8.96303 11.1798L8.56402 11.1518L8.5129 11.8794L8.91191 11.9074ZM8.53868 12.2921C8.74632 12.2757 8.89781 12.105 8.9119 11.9076L8.51291 11.8791C8.51243 11.886 8.50982 11.8902 8.50787 11.8922C8.50605 11.8942 8.50578 11.8934 8.50724 11.8933L8.53868 12.2921ZM7.95025 12.3379L8.53848 12.2921L8.50744 11.8933L7.91921 11.9391L7.95025 12.3379ZM8.10192 12.7527L8.13444 12.1492L7.73502 12.1277L7.7025 12.7312L8.10192 12.7527ZM7.71338 13.1453C7.93021 13.1366 8.09114 12.9585 8.10194 12.7524L7.70249 12.7315C7.70213 12.7384 7.6995 12.7426 7.69749 12.7447C7.69559 12.7467 7.69548 12.7457 7.69728 12.7457L7.71338 13.1453ZM7.16059 13.1676L7.71339 13.1453L7.69727 12.7457L7.14447 12.768L7.16059 13.1676ZM7.32005 13.5754L7.35224 12.9786L6.95282 12.957L6.92063 13.5539L7.32005 13.5754ZM6.91552 13.9682C7.13912 13.9682 7.30866 13.7869 7.32005 13.5754L6.92063 13.5539C6.92024 13.561 6.91746 13.5653 6.91542 13.5674C6.91442 13.5684 6.91384 13.5686 6.91404 13.5685C6.91439 13.5683 6.91504 13.5682 6.91552 13.5682V13.9682ZM6.40576 13.9682H6.91552V13.5682H6.40576V13.9682ZM6.58566 14.8314L6.60572 13.772L6.20579 13.7644L6.18573 14.8238L6.58566 14.8314ZM7.50699 14.604L6.38149 14.6277L6.3899 15.0276L7.5154 15.0039L7.50699 14.604ZM11.0181 10.8245L7.36624 14.6662L7.65615 14.9418L11.308 11.1001L11.0181 10.8245ZM11.4611 10.7298C11.3064 10.6651 11.1316 10.705 11.0181 10.8245L11.308 11.1001C11.3094 11.0986 11.31 11.0988 11.3091 11.0989C11.3082 11.0991 11.3071 11.099 11.3066 11.0988L11.4611 10.7298Z" fill="white"/>
<path fill-rule="evenodd" clip-rule="evenodd" d="M0.136368 10.8501C0.136368 5.03183 4.63593 0.29834 10.1667 0.29834C15.6974 0.29834 20.197 5.03183 20.197 10.8501C20.197 16.6684 15.6974 21.4019 10.1667 21.4019C4.63593 21.4019 0.136368 16.6684 0.136368 10.8501ZM16.9281 12.5852H18.3726C18.4858 12.5852 18.5777 12.4887 18.5776 12.3697V9.33099C18.5776 9.21186 18.4857 9.11519 18.3724 9.11519H16.9269C16.7572 8.38644 16.4848 7.69121 16.1156 7.04381L17.139 5.96719C17.1775 5.92668 17.1992 5.87171 17.1992 5.81453C17.1992 5.75718 17.1775 5.70237 17.139 5.66187L15.0985 3.51526C15.06 3.47476 15.0077 3.45195 14.9534 3.45195H14.9527C14.8981 3.45229 14.8456 3.47527 14.8073 3.51629L13.785 4.6072C13.1764 4.21645 12.5155 3.93002 11.816 3.75438V2.21757C11.816 2.09843 11.7241 2.00177 11.6109 2.00177H8.72247C8.60922 2.00177 8.51733 2.09826 8.51733 2.21757V3.73821C7.8246 3.91691 7.16357 4.20334 6.54832 4.59172L5.52491 3.51526C5.44483 3.43102 5.31492 3.43102 5.23484 3.51526L3.19432 5.66187C3.11424 5.74611 3.11424 5.88278 3.19432 5.96702L4.2166 7.04245C3.84483 7.68321 3.57239 8.37878 3.40528 9.11502H1.96075C1.84751 9.11502 1.75562 9.21152 1.75562 9.33082V12.3694C1.75562 12.4885 1.84734 12.5852 1.96075 12.5852H3.40625C3.57612 13.3139 3.84839 14.0093 4.21757 14.6566L3.19432 15.7332C3.11424 15.8174 3.11424 15.9541 3.19432 16.0383L5.23484 18.1851C5.31492 18.2694 5.44483 18.2694 5.52491 18.1851L6.54719 17.1097C7.15629 17.501 7.81764 17.7876 8.51733 17.9632V19.4828C8.51733 19.602 8.60906 19.6986 8.72247 19.6986H11.6109C11.7241 19.6986 11.816 19.6021 11.816 19.4828V17.9622C12.5087 17.7835 13.1698 17.497 13.785 17.1087L14.8084 18.1851C14.8885 18.2694 15.0184 18.2694 15.0985 18.1851L17.139 16.0385C17.1775 15.998 17.1992 15.9432 17.1992 15.8859C17.1992 15.8285 17.1775 15.7737 17.139 15.7332L16.1167 14.6578C16.4887 14.017 16.7609 13.3213 16.9281 12.5852Z" fill="white"/>
</svg>
