<svg width="17" height="18" viewBox="0 0 17 18" fill="none" xmlns="http://www.w3.org/2000/svg">
<path d="M6.32773 0.15918H1.31259C0.667326 0.15918 0.142426 0.71137 0.142426 1.39018V4.55571C0.142426 5.23464 0.667326 5.78683 1.31259 5.78683H6.32773C6.97312 5.78683 7.49802 5.23464 7.49802 4.55571V1.39018C7.49802 0.71137 6.97312 0.15918 6.32773 0.15918Z" fill="white"/>
<path d="M6.32773 7.1936H1.31259C0.667326 7.1936 0.142426 7.74579 0.142426 8.42473V15.811C0.142426 16.4898 0.667326 17.042 1.31259 17.042H6.32773C6.97312 17.042 7.49802 16.4898 7.49802 15.811V8.42473C7.49802 7.74579 6.97312 7.1936 6.32773 7.1936Z" fill="white"/>
<path d="M15.0207 11.4143H10.0056C9.36021 11.4143 8.83531 11.9665 8.83531 12.6454V15.811C8.83531 16.4898 9.36021 17.042 10.0056 17.042H15.0207C15.666 17.042 16.1909 16.4898 16.1909 15.811V12.6454C16.1909 11.9665 15.666 11.4143 15.0207 11.4143Z" fill="white"/>
<path d="M15.0207 0.15918H10.0056C9.36021 0.15918 8.83531 0.71137 8.83531 1.39018V8.77641C8.83531 9.45535 9.36021 10.0075 10.0056 10.0075H15.0207C15.666 10.0075 16.1909 9.45535 16.1909 8.77641V1.39018C16.1909 0.71137 15.666 0.15918 15.0207 0.15918V0.15918Z" fill="white"/>
</svg>
