<svg width="21" height="22" viewBox="0 0 21 22" fill="none" xmlns="http://www.w3.org/2000/svg">
<path fill-rule="evenodd" clip-rule="evenodd" d="M10.1697 0.466553C4.68904 0.466553 0.246094 5.14048 0.246094 10.9061C0.246094 16.6717 4.68904 21.3456 10.1697 21.3456C15.6503 21.3456 20.0933 16.6717 20.0933 10.9061C20.0933 8.13734 19.0478 5.48201 17.1867 3.52422C15.3257 1.56643 12.8016 0.466553 10.1697 0.466553ZM11.3178 17.4863C11.0225 17.8079 10.6139 17.9867 10.1889 17.9802C9.76614 17.988 9.35968 17.8088 9.06849 17.4863C8.76632 17.172 8.59973 16.7412 8.60752 16.2942C8.60466 15.8527 8.77012 15.4283 9.06691 15.1161C9.3637 14.8039 9.76705 14.6298 10.1868 14.6329C10.6098 14.6256 11.0174 14.7999 11.3157 15.1155C11.6221 15.422 11.7923 15.8495 11.7852 16.2942C11.7931 16.7425 11.6239 17.1742 11.3178 17.4863ZM13.6419 9.33453C13.7897 9.07443 13.9065 8.7962 13.9897 8.50611H13.9962C14.2128 7.69259 14.1539 6.82517 13.8297 6.05226C13.6377 5.60669 13.3593 5.20828 13.0123 4.88258C12.6437 4.54239 12.2162 4.28017 11.7532 4.11028C11.2344 3.91837 10.6876 3.82339 10.1377 3.82965C9.62796 3.82119 9.12125 3.91333 8.64381 4.1013C7.83407 4.4213 7.14655 5.01205 6.68683 5.78285C6.4836 6.11873 6.32627 6.483 6.21946 6.86497L8.33223 7.79218C8.38275 7.58226 8.46029 7.38059 8.56271 7.19275C8.66765 6.99851 8.80087 6.82276 8.95752 6.6719C9.29647 6.34119 9.74375 6.16102 10.206 6.169C10.6253 6.14692 11.0344 6.30963 11.3349 6.61801C11.5992 6.88604 11.7487 7.25556 11.7489 7.64176C11.7593 7.98091 11.6625 8.31411 11.4736 8.58918C11.2433 8.89877 10.9845 9.18377 10.7011 9.44005C10.4199 9.68678 10.1533 9.95144 9.90293 10.2326C9.7036 10.4539 9.53022 10.6997 9.38648 10.9644C9.26003 11.2045 9.16458 11.4612 9.10264 11.7278C9.04015 12.0096 9.01006 12.2983 9.01301 12.5876V13.2364H11.4181V12.9266C11.4153 12.7156 11.4339 12.5049 11.4736 12.298C11.5098 12.1199 11.5686 11.9477 11.6486 11.7861C11.7394 11.6087 11.8505 11.4435 11.9794 11.2945C12.1075 11.1433 12.2817 10.9562 12.5023 10.7332C12.7228 10.5102 12.9312 10.2857 13.1276 10.0597C13.3218 9.8368 13.4941 9.59385 13.6419 9.33453Z" fill="white"/>
</svg>
