<svg width="17" height="22" viewBox="0 0 17 22" fill="none" xmlns="http://www.w3.org/2000/svg">
<path d="M2.76445 21.1345H0.571891C0.35341 21.1345 0.174652 20.9465 0.174652 20.7166V0.754562C0.174652 0.524721 0.35341 0.33667 0.571891 0.33667H2.76445C2.98293 0.33667 3.16169 0.524721 3.16169 0.754562V20.7164C3.16169 20.9465 2.98293 21.1345 2.76445 21.1345Z" fill="white"/>
<path d="M6.12252 21.1348H3.96075C3.74226 21.1348 3.56351 20.9468 3.56351 20.7169V3.6945C3.56351 3.46466 3.74226 3.27661 3.96075 3.27661H6.12252C6.34101 3.27661 6.51976 3.46466 6.51976 3.6945V20.7167C6.51976 20.9468 6.34101 21.1348 6.12252 21.1348Z" fill="white"/>
<path d="M9.4494 21.1348H7.28782C7.06934 21.1348 6.89058 20.9468 6.89058 20.7169V0.726241C6.89058 0.496401 7.06934 0.30835 7.28782 0.30835H9.4496C9.66808 0.30835 9.84684 0.496401 9.84684 0.726241V20.7169C9.84664 20.9468 9.66788 21.1348 9.4494 21.1348Z" fill="white"/>
<path d="M16.6581 20.4917L14.5871 21.1434C14.3778 21.2092 14.1553 21.083 14.0927 20.8628L10.0784 6.74659C10.0159 6.52636 10.1358 6.29234 10.3452 6.22652L12.4162 5.57482C12.6255 5.509 12.848 5.63521 12.9106 5.85544L16.9249 19.9716C16.9874 20.1916 16.8675 20.4259 16.6581 20.4917Z" fill="white"/>
</svg>
