<svg width="21" height="22" viewBox="0 0 21 22" fill="none" xmlns="http://www.w3.org/2000/svg">
<path fill-rule="evenodd" clip-rule="evenodd" d="M12.7134 13.5C12.7134 13.8414 12.4503 14.1182 12.1257 14.1182H10.7544V15.3548H17.6502C17.9748 15.3548 18.2379 15.6316 18.2379 15.973V17.8278H19.6093C19.9338 17.8278 20.197 18.1047 20.197 18.4461V20.507C20.197 20.8484 19.9338 21.1253 19.6093 21.1253H15.6912C15.3666 21.1253 15.1035 20.8484 15.1035 20.507V18.4461C15.1035 18.1047 15.3666 17.8278 15.6912 17.8278H17.0625V16.5913H10.7544V17.8278H12.1257C12.4503 17.8278 12.7134 18.1047 12.7134 18.4461V20.507C12.7134 20.8484 12.4503 21.1253 12.1257 21.1253H8.20763C7.88305 21.1253 7.61991 20.8484 7.61991 20.507V18.4461C7.61991 18.1047 7.88305 17.8278 8.20763 17.8278H9.57896V16.5913H3.27084V17.8278H4.64217C4.96674 17.8278 5.22988 18.1047 5.22988 18.4461V20.507C5.22988 20.8484 4.96674 21.1253 4.64217 21.1253H0.724081C0.399506 21.1253 0.136368 20.8484 0.136368 20.507V18.4461C0.136368 18.1047 0.399506 17.8278 0.724081 17.8278H2.09541V15.973C2.09541 15.6316 2.35855 15.3548 2.68312 15.3548H9.57896V14.1182H8.20763C7.88305 14.1182 7.61991 13.8414 7.61991 13.5V13.0878H2.68312C2.35855 13.0878 2.09541 12.811 2.09541 12.4695V10.6147H0.724081C0.399506 10.6147 0.136368 10.3379 0.136368 9.99645V7.93556C0.136368 7.59411 0.399506 7.31729 0.724081 7.31729H2.09541V5.46248C2.09541 5.12104 2.35855 4.84422 2.68312 4.84422H9.57896V3.60768H8.14885C7.20906 3.60768 6.44449 2.80336 6.44449 1.81471C6.44449 0.826054 7.20906 0.0217285 8.14885 0.0217285H12.1845C13.1243 0.0217285 13.8889 0.826054 13.8889 1.81471C13.8889 2.80336 13.1243 3.60768 12.1845 3.60768H10.7544V4.84422H17.6502C17.9748 4.84422 18.2379 5.12104 18.2379 5.46248V7.31729H19.6093C19.9338 7.31729 20.197 7.59411 20.197 7.93556V9.99645C20.197 10.3379 19.9338 10.6147 19.6093 10.6147H18.2379V12.4695C18.2379 12.811 17.9748 13.0878 17.6502 13.0878H12.7134V13.5ZM7.61991 11.4391C7.61991 11.0976 7.88305 10.8208 8.20763 10.8208H12.1257C12.4503 10.8208 12.7134 11.0976 12.7134 11.4391V11.8513H17.0625V10.6147H15.6912C15.3666 10.6147 15.1035 10.3379 15.1035 9.99645V7.93555C15.1035 7.59411 15.3666 7.31729 15.6912 7.31729H17.0625V6.08075H3.27084V7.31729H4.64217C4.96674 7.31729 5.22988 7.59411 5.22988 7.93555V9.99645C5.22988 10.3379 4.96674 10.6147 4.64217 10.6147H3.27084V11.8513H7.61991V11.4391Z" fill="white"/>
</svg>
