<svg width="20" height="22" viewBox="0 0 20 22" fill="none" xmlns="http://www.w3.org/2000/svg">
<path fill-rule="evenodd" clip-rule="evenodd" d="M17.4581 11.5967L19.2984 13.1105C19.6425 13.3998 19.7371 13.9085 19.5219 14.3129L17.5999 17.8145C17.3827 18.2211 16.9137 18.3968 16.5012 18.2261L14.3239 17.3055C13.9158 17.6151 13.4799 17.882 13.0225 18.1024L12.6888 20.5333C12.6265 20.9953 12.2489 21.3374 11.8053 21.3337H7.96789C7.52284 21.3356 7.14568 20.9895 7.08694 20.5254L6.75326 18.1032C6.29418 17.8846 5.8573 17.6176 5.44936 17.3064L3.28035 18.2243C2.8635 18.3907 2.39358 18.2127 2.17334 17.8049L0.259608 14.3225C0.0397235 13.9174 0.132401 13.4043 0.478163 13.1123L2.32014 11.5984C2.26254 11.0701 2.26254 10.5366 2.32014 10.0082L0.479845 8.49437C0.12939 8.20295 0.0365169 7.6845 0.262111 7.27888L2.17835 3.79129C2.39526 3.38444 2.86448 3.20861 3.27703 3.3797L5.4519 4.29946C5.85992 3.98977 6.29582 3.72287 6.7533 3.50258L7.08698 1.07164C7.14877 0.610492 7.52522 0.268474 7.96793 0.271272H11.8054C12.2518 0.267446 12.6313 0.61333 12.6913 1.07868L13.0242 3.50262C13.4831 3.72082 13.9197 3.98751 14.3273 4.29859L16.4963 3.38061C16.9131 3.21462 17.3828 3.39258 17.6033 3.80009L19.5178 7.28152C19.7375 7.68647 19.6453 8.19929 19.3001 8.49174L17.4581 10.0065C17.5152 10.5348 17.5152 11.0683 17.4581 11.5967ZM5.71547 10.8024C5.71547 13.2259 7.58298 15.1904 9.88663 15.1904C12.1891 15.1876 14.055 13.2247 14.0578 10.8024C14.0578 8.37898 12.1903 6.41442 9.88663 6.41442C7.58294 6.41442 5.71547 8.37898 5.71547 10.8024Z" fill="white"/>
</svg>
